<svg width="24" height="24" viewBox="0 0 24 24" fill="none" xmlns="http://www.w3.org/2000/svg">
<path fill-rule="evenodd" clip-rule="evenodd" d="M4 4H6V17H4L4 4ZM2 4C2 2.89543 2.89543 2 4 2H6C7.10457 2 8 2.89543 8 4V17C8 18.1046 7.10457 19 6 19H4C2.89543 19 2 18.1046 2 17V4ZM3 20C2.44772 20 2 20.4477 2 21C2 21.5523 2.44772 22 3 22H21C21.5523 22 22 21.5523 22 21C22 20.4477 21.5523 20 21 20H3ZM13 8H11V17H13V8ZM11 6C9.89543 6 9 6.89543 9 8V17C9 18.1046 9.89543 19 11 19H13C14.1046 19 15 18.1046 15 17V8C15 6.89543 14.1046 6 13 6H11ZM18 12H20V17H18V12ZM16 12C16 10.8954 16.8954 10 18 10H20C21.1046 10 22 10.8954 22 12V17C22 18.1046 21.1046 19 20 19H18C16.8954 19 16 18.1046 16 17V12Z" fill="white"/>
</svg>
