<svg width="24" height="24" viewBox="0 0 24 24" fill="none" xmlns="http://www.w3.org/2000/svg">
<path fill-rule="evenodd" clip-rule="evenodd" d="M8 3C6.34315 3 5 4.34315 5 6V8C5 8.55228 5.44772 9 6 9C6.55228 9 7 8.55228 7 8V6C7 5.44772 7.44772 5 8 5H16C16.5523 5 17 5.44772 17 6V18C17 18.5523 16.5523 19 16 19H8C7.44772 19 7 18.5523 7 18V16C7 15.4477 6.55228 15 6 15C5.44772 15 5 15.4477 5 16V18C5 19.6569 6.34315 21 8 21H16C17.6569 21 19 19.6569 19 18V6C19 4.34315 17.6569 3 16 3H8ZM7 11C6.44771 11 6 11.4477 6 12C6 12.5523 6.44772 13 7 13L9.58577 13L9.29289 13.2929C8.90237 13.6834 8.90236 14.3166 9.29289 14.7071C9.68341 15.0976 10.3166 15.0976 10.7071 14.7071L12.7071 12.7071C12.8946 12.5196 13 12.2652 13 12C13 11.7348 12.8946 11.4804 12.7071 11.2929L10.7071 9.29289C10.3166 8.90237 9.68341 8.90236 9.29289 9.29289C8.90237 9.68341 8.90236 10.3166 9.29289 10.7071L9.58578 11L7 11Z" fill="black"/>
</svg>
