<svg width="24" height="24" viewBox="0 0 24 24" fill="none" xmlns="http://www.w3.org/2000/svg">
<path fill-rule="evenodd" clip-rule="evenodd" d="M20 12C20 7.58172 16.4183 4 12 4C7.58172 4 4 7.58172 4 12C4 16.4183 7.58172 20 12 20C16.4183 20 20 16.4183 20 12ZM22 12C22 6.47715 17.5228 2 12 2C6.47715 2 2 6.47715 2 12C2 17.5228 6.47715 22 12 22C17.5228 22 22 17.5228 22 12ZM13.0606 9.52512C13.4512 9.1346 14.0843 9.1346 14.4749 9.52512C14.8654 9.91565 14.8654 10.5488 14.4749 10.9393L12.6464 12.7678L13.0606 12.7678C13.6129 12.7677 14.0606 13.2155 14.0606 13.7677C14.0606 14.32 13.6129 14.7677 13.0606 14.7678L10.2322 14.7678C9.96701 14.7678 9.71265 14.6624 9.52512 14.4749C9.33758 14.2873 9.23222 14.033 9.23222 13.7678L9.23222 10.9393C9.23222 10.387 9.67993 9.93933 10.2322 9.93933C10.7845 9.93933 11.2322 10.387 11.2322 10.9393V11.3535L13.0606 9.52512Z" fill="black"/>
</svg>
