<svg width="24" height="24" viewBox="0 0 24 24" fill="none" xmlns="http://www.w3.org/2000/svg">
<path fill-rule="evenodd" clip-rule="evenodd" d="M9 6H6L6 9H9V6ZM6 4C4.89543 4 4 4.89543 4 6V9C4 10.1046 4.89543 11 6 11H9C10.1046 11 11 10.1046 11 9V6C11 4.89543 10.1046 4 9 4H6ZM6 15H9V18H6L6 15ZM4 15C4 13.8954 4.89543 13 6 13H9C10.1046 13 11 13.8954 11 15V18C11 19.1046 10.1046 20 9 20H6C4.89543 20 4 19.1046 4 18V15ZM15 18V15H18V18H15ZM13 15C13 13.8954 13.8954 13 15 13H18C19.1046 13 20 13.8954 20 15V18C20 19.1046 19.1046 20 18 20H15C13.8954 20 13 19.1046 13 18V15ZM17.5 5C17.5 4.44772 17.0523 4 16.5 4C15.9477 4 15.5 4.44772 15.5 5V6.5H14C13.4477 6.5 13 6.94772 13 7.5C13 8.05228 13.4477 8.5 14 8.5H15.5V10C15.5 10.5523 15.9477 11 16.5 11C17.0523 11 17.5 10.5523 17.5 10V8.5H19C19.5523 8.5 20 8.05228 20 7.5C20 6.94772 19.5523 6.5 19 6.5H17.5V5Z" fill="black"/>
</svg>
