<svg width="24" height="24" viewBox="0 0 24 24" fill="none" xmlns="http://www.w3.org/2000/svg">
<path fill-rule="evenodd" clip-rule="evenodd" d="M14 11C14 12.6569 12.6569 14 11 14C9.34315 14 8 12.6569 8 11C8 9.34315 9.34315 8 11 8C12.6569 8 14 9.34315 14 11ZM14.3328 14.7273C15.356 13.8117 16 12.4811 16 11C16 8.23858 13.7614 6 11 6C8.23858 6 6 8.23858 6 11C6 12.4811 6.64396 13.8117 7.66717 14.7273C6.81067 15.1198 6.02216 15.6641 5.34315 16.3431C4.32406 17.3622 3.60831 18.6279 3.25401 20C3.08671 20.6479 3 21.3195 3 22L5 22L11 22H12.717C16.187 22 19.1105 18.7968 16.6569 16.3431C15.9778 15.6641 15.1893 15.1198 14.3328 14.7273ZM11 16C12.5913 16 14.1174 16.6321 15.2426 17.7574C15.5459 18.0606 15.5634 18.2504 15.565 18.3141C15.5674 18.4064 15.5357 18.5977 15.3272 18.8669C14.8806 19.4435 13.8885 20 12.717 20H11L5.34314 20C5.63866 19.1642 6.11855 18.3962 6.75736 17.7574C7.88258 16.6321 9.4087 16 11 16Z" fill="#333333"/>
</svg>
