<svg width="24" height="24" viewBox="0 0 24 24" fill="none" xmlns="http://www.w3.org/2000/svg">
<path fill-rule="evenodd" clip-rule="evenodd" d="M2.5 4C2.5 3.44772 2.94772 3 3.5 3H13.5C14.0523 3 14.5 3.44772 14.5 4V5.892H20.5C21.0523 5.892 21.5 6.33971 21.5 6.892V19.5C21.5 20.0523 21.0523 20.5 20.5 20.5H5.5L5.4921 20.5H3.5C2.94772 20.5 2.5 20.0523 2.5 19.5V4ZM14.5 18.5V7.892H19.5V18.5H14.5ZM4.5 5V18.5H5.5V16C5.5 15.4477 5.94772 15 6.5 15H10.5C11.0523 15 11.5 15.4477 11.5 16V18.5H12.5V5H4.5ZM9.5 18.5H7.5V17H9.5V18.5ZM6 6C5.44772 6 5 6.44772 5 7C5 7.55228 5.44772 8 6 8H7C7.55228 8 8 7.55228 8 7C8 6.44772 7.55228 6 7 6H6ZM5 10C5 9.44772 5.44772 9 6 9H7C7.55228 9 8 9.44772 8 10C8 10.5523 7.55228 11 7 11H6C5.44772 11 5 10.5523 5 10ZM6 12C5.44772 12 5 12.4477 5 13C5 13.5523 5.44772 14 6 14H7C7.55228 14 8 13.5523 8 13C8 12.4477 7.55228 12 7 12H6ZM9 7C9 6.44772 9.44772 6 10 6H10.8394C11.3917 6 11.8394 6.44772 11.8394 7C11.8394 7.55228 11.3917 8 10.8394 8H10C9.44772 8 9 7.55228 9 7ZM10 9C9.44772 9 9 9.44772 9 10C9 10.5523 9.44772 11 10 11H10.8394C11.3917 11 11.8394 10.5523 11.8394 10C11.8394 9.44772 11.3917 9 10.8394 9H10ZM10 12C9.44772 12 9 12.4477 9 13C9 13.5523 9.44772 14 10 14H11C11.5523 14 12 13.5523 12 13C12 12.4477 11.5523 12 11 12H10Z" fill="black"/>
</svg>
