<svg width="24" height="24" viewBox="0 0 24 24" fill="none" xmlns="http://www.w3.org/2000/svg">
<path fill-rule="evenodd" clip-rule="evenodd" d="M14 7C14 8.65685 12.6569 10 11 10C9.34315 10 8 8.65685 8 7C8 5.34315 9.34315 4 11 4C12.6569 4 14 5.34315 14 7ZM16 7C16 9.76142 13.7614 12 11 12C8.23858 12 6 9.76142 6 7C6 4.23858 8.23858 2 11 2C13.7614 2 16 4.23858 16 7ZM20 5.5C20 4.94772 19.5523 4.5 19 4.5C18.4477 4.5 18 4.94772 18 5.5V12C18 12.5523 17.5523 13 17 13H15.5H8C6.34315 13 5 14.3431 5 16V21C5 21.5523 5.44772 22 6 22C6.55228 22 7 21.5523 7 21V16C7 15.4477 7.44772 15 8 15H14.5V21C14.5 21.5523 14.9477 22 15.5 22C16.0523 22 16.5 21.5523 16.5 21V15H17C18.6569 15 20 13.6569 20 12V5.5Z" fill="black"/>
</svg>
