<svg width="24" height="24" viewBox="0 0 24 24" fill="none" xmlns="http://www.w3.org/2000/svg">
<path fill-rule="evenodd" clip-rule="evenodd" d="M20 12C20 7.58172 16.4183 4 12 4C7.58172 4 4 7.58172 4 12C4 16.4183 7.58172 20 12 20C16.4183 20 20 16.4183 20 12ZM22 12C22 6.47715 17.5228 2 12 2C6.47715 2 2 6.47715 2 12C2 17.5228 6.47715 22 12 22C17.5228 22 22 17.5228 22 12ZM10.9393 14.4749C10.5488 14.8654 9.91565 14.8654 9.52512 14.4749C9.1346 14.0843 9.1346 13.4512 9.52512 13.0607L11.3535 11.2322L10.9393 11.2322C10.3871 11.2322 9.93934 10.7845 9.93934 10.2322C9.93934 9.67996 10.3871 9.23224 10.9393 9.23224L13.7678 9.23223C14.033 9.23223 14.2873 9.33759 14.4749 9.52513C14.6624 9.71266 14.7678 9.96702 14.7678 10.2322L14.7678 13.0607C14.7678 13.6129 14.3201 14.0607 13.7678 14.0607C13.2155 14.0607 12.7678 13.6129 12.7678 13.0607V12.6464L10.9393 14.4749Z" fill="black"/>
</svg>
