<svg width="24" height="24" viewBox="0 0 24 24" fill="none" xmlns="http://www.w3.org/2000/svg">
<path fill-rule="evenodd" clip-rule="evenodd" d="M8.50002 9.5C8.50002 8.67157 9.17159 8 10 8H16.5C17.0523 8 17.5 7.55228 17.5 7C17.5 6.44772 17.0523 6 16.5 6H10C8.06703 6 6.50002 7.567 6.50002 9.5C6.50002 10.907 7.33021 12.12 8.52744 12.6761L5.70594 13.5442C5.17807 13.7066 4.88182 14.2662 5.04424 14.7941C5.20666 15.3219 5.76625 15.6182 6.29411 15.4558L14.0378 13.0731C14.8812 13.308 15.5 14.0817 15.5 15C15.5 16.1046 14.6046 17 13.5 17H7.50002C6.94774 17 6.50002 17.4477 6.50002 18C6.50002 18.5523 6.94774 19 7.50002 19H13.5C15.7092 19 17.5 17.2091 17.5 15C17.5 13.9709 17.1114 13.0326 16.473 12.3238L19.2941 11.4558C19.822 11.2934 20.1182 10.7338 19.9558 10.2059C19.7934 9.67805 19.2338 9.3818 18.7059 9.54422L13.9079 11.0205C13.7738 11.007 13.6377 11 13.5 11H10C9.17159 11 8.50002 10.3284 8.50002 9.5Z" fill="black"/>
</svg>
