<svg width="24" height="24" viewBox="0 0 24 24" fill="none" xmlns="http://www.w3.org/2000/svg">
<path fill-rule="evenodd" clip-rule="evenodd" d="M18 20H6V4.00001L18 4V20ZM18 22H6C4.89543 22 4 21.1046 4 20V4.00001C4 2.89544 4.89543 2.00001 6 2.00001L18 2C19.1046 2 20 2.89543 20 4V20C20 21.1046 19.1046 22 18 22ZM7 11C7 10.4477 7.44772 10 8 10H16C16.5523 10 17 10.4477 17 11C17 11.5523 16.5523 12 16 12H8C7.44772 12 7 11.5523 7 11ZM8 13C7.44772 13 7 13.4477 7 14C7 14.5523 7.44772 15 8 15H16C16.5523 15 17 14.5523 17 14C17 13.4477 16.5523 13 16 13H8ZM7 7C7 6.44772 7.44772 6 8 6H14C14.5523 6 15 6.44772 15 7C15 7.55228 14.5523 8 14 8H8C7.44772 8 7 7.55228 7 7ZM14 17C13.4477 17 13 17.4477 13 18C13 18.5523 13.4477 19 14 19H16C16.5523 19 17 18.5523 17 18C17 17.4477 16.5523 17 16 17H14Z" fill="black"/>
</svg>
