<svg width="24" height="24" viewBox="0 0 24 24" fill="none" xmlns="http://www.w3.org/2000/svg">
<path fill-rule="evenodd" clip-rule="evenodd" d="M14 11C14 12.6569 12.6568 14 11 14C9.34313 14 7.99999 12.6569 7.99999 11C7.99999 9.34315 9.34313 8 11 8C12.6568 8 14 9.34315 14 11ZM14.3328 14.7273C15.356 13.8117 16 12.4811 16 11C16 8.23858 13.7614 6 11 6C8.23856 6 5.99999 8.23858 5.99999 11C5.99999 12.4811 6.64395 13.8117 7.66716 14.7273C6.81066 15.1198 6.02215 15.6641 5.34313 16.3431C2.88945 18.7968 5.813 22 9.28303 22H11H17H19C19 21.3195 18.9133 20.6479 18.746 20C18.3917 18.6279 17.6759 17.3622 16.6568 16.3431C15.9778 15.6641 15.1893 15.1198 14.3328 14.7273ZM15.2426 17.7574C15.8814 18.3962 16.3613 19.1642 16.6568 20H11H9.28303C8.11151 20 7.11943 19.4435 6.67279 18.8669C6.46427 18.5977 6.43255 18.4064 6.43495 18.3141C6.4366 18.2504 6.45407 18.0606 6.75735 17.7574C7.88257 16.6321 9.40869 16 11 16C12.5913 16 14.1174 16.6321 15.2426 17.7574Z" fill="#333333"/>
</svg>
